<svg width="96" height="26" viewBox="0 0 96 26" fill="none" xmlns="http://www.w3.org/2000/svg">
<g clip-path="url(#clip0_3775_17360)">
<path fill-rule="evenodd" clip-rule="evenodd" d="M13.4428 0.197754C13.5919 1.51775 13.0682 2.80079 12.3216 3.76275C11.5355 4.70561 10.2639 5.42294 9.02926 5.32865C8.86107 4.06472 9.49686 2.72562 10.1887 1.89489C10.9748 0.971147 12.3394 0.253815 13.4428 0.197754ZM17.4818 7.79918C17.3697 7.85524 15.0699 9.23257 15.089 12.042C15.1259 15.4184 18.0246 16.532 18.0246 16.532C17.6841 17.6628 17.1663 18.7323 16.4905 19.7008C15.5935 21.0768 14.6392 22.4172 13.1243 22.4363C12.3993 22.4542 11.9139 22.2452 11.4068 22.0286C10.8818 21.8031 10.3352 21.5686 9.47775 21.5686C8.56548 21.5686 7.99085 21.8133 7.43915 22.0477C6.96135 22.2516 6.50012 22.4478 5.85032 22.4733C4.41056 22.5306 3.30717 21.0208 2.37196 19.6638C0.483707 16.9092 -0.975165 11.8738 0.98826 8.44006C1.94131 6.76204 3.68048 5.68668 5.53179 5.64973C6.35232 5.6268 7.14101 5.94788 7.83031 6.22818C8.3527 6.44096 8.81903 6.62953 9.19744 6.62953C9.54018 6.62953 9.99759 6.44351 10.5302 6.22818C11.366 5.88927 12.384 5.47645 13.4237 5.59112C14.1538 5.61151 16.1733 5.87525 17.4818 7.79918ZM50.5632 6.49702H49.6471V0.480609H50.5644V6.49702H50.5632ZM28.1615 6.55563C27.7177 6.56226 27.274 6.53671 26.8339 6.47919V0.860298C27.3563 0.783851 27.8812 0.745627 28.4049 0.745627C30.5174 0.745627 31.4908 1.80315 31.4908 3.51812C31.4908 5.48027 30.3313 6.55563 28.1615 6.55563ZM64.2167 21.4374C64.9085 20.8156 65.2449 20.004 65.2449 19.0229C65.2449 18.2126 65.0206 17.5526 64.5161 17.0238C64.0485 16.476 63.3184 16.0045 62.3284 15.6096C61.5053 15.2694 60.9435 14.9865 60.6453 14.7049C60.4756 14.5699 60.3399 14.397 60.2489 14.2001C60.158 14.0032 60.1144 13.7877 60.1216 13.571C60.1216 13.1569 60.2898 12.7988 60.5892 12.516C60.9626 12.1949 61.4684 12.0254 62.122 12.0254C62.9451 12.0254 63.6739 12.1949 64.3288 12.5542L64.7964 11.0444C64.1046 10.6863 63.2254 10.4965 62.1781 10.4965C61.0186 10.4965 60.0656 10.7997 59.3546 11.4024C58.6437 12.0063 58.2882 12.7797 58.2882 13.7417C58.2882 15.2133 59.2986 16.3256 61.318 17.0799C62.066 17.364 62.5896 17.666 62.9082 17.9858C63.2267 18.3069 63.3936 18.7031 63.3936 19.1746C63.3936 19.702 63.2076 20.1174 62.8139 20.4372C62.4214 20.7583 61.8787 20.9086 61.1868 20.9086C60.2147 20.9086 59.3177 20.6831 58.5124 20.1926L58.083 21.7394C58.8501 22.2108 59.8413 22.4567 61.0747 22.4567C62.4214 22.4567 63.4688 22.1165 64.2167 21.4374ZM35.4724 22.286H33.5103L32.4247 18.8713H28.6839L27.6557 22.286H25.7483L29.4509 10.6672H31.7507L35.4712 22.2872L35.4724 22.286ZM32.1075 17.4392L31.1353 14.4017C31.0232 14.0997 30.8359 13.3646 30.5556 12.214H30.5174C30.4154 12.6651 30.2485 13.3225 30.0332 14.1736L29.9759 14.403L29.0215 17.4392H32.1075ZM43.8332 21.3622C44.6003 20.5328 44.9927 19.4192 44.9927 17.9858C44.9927 16.7219 44.6742 15.6847 44.0193 14.8731C43.3656 14.0997 42.5425 13.7047 41.5704 13.7047C40.3167 13.7047 39.3827 14.2144 38.7648 15.2133H38.7265L38.6157 13.8933H36.9886C37.0447 14.8362 37.0638 15.7599 37.0638 16.6467V25.6802H38.896V21.2845C39.3814 22.077 40.1676 22.4733 41.271 22.4733C42.2992 22.4733 43.1414 22.0961 43.832 21.361L43.8332 21.3622ZM43.1223 18.0622C43.1223 17.2506 42.935 16.5715 42.5795 16.0428C42.4022 15.7811 42.1621 15.5681 41.8812 15.4232C41.6003 15.2783 41.2875 15.2062 40.9716 15.2133C40.5231 15.2133 40.1115 15.3637 39.7369 15.6656C39.3595 15.97 39.1015 16.3977 39.0081 16.8735C38.9521 17.0621 38.933 17.2506 38.9151 17.4392V18.8344C38.9151 19.4383 39.1011 19.9658 39.4757 20.3812C39.6559 20.5836 39.878 20.7443 40.1267 20.8519C40.3754 20.9595 40.6446 21.0115 40.9155 21.0042C41.6073 21.0042 42.1501 20.7392 42.5425 20.1926C42.935 19.6651 43.1223 18.949 43.1223 18.0622ZM53.407 21.3622C54.174 20.5328 54.5665 19.4192 54.5665 17.9858C54.5665 16.7219 54.2301 15.6847 53.5765 14.8731C52.9216 14.0997 52.0985 13.7047 51.1263 13.7047C49.8739 13.7047 48.9387 14.2144 48.3207 15.2133H48.2825L48.1716 13.8933H46.5446C46.6006 14.8362 46.6197 15.7599 46.6197 16.6467V25.6802H48.4711V21.2845C48.9565 22.077 49.7426 22.4733 50.846 22.4733C51.8742 22.4733 52.7152 22.0974 53.407 21.3622ZM52.6782 18.0622C52.6782 17.2506 52.4909 16.5715 52.1354 16.0428C51.9581 15.7811 51.718 15.5681 51.4371 15.4232C51.1562 15.2783 50.8435 15.2062 50.5275 15.2133C50.079 15.2133 49.6675 15.3637 49.2941 15.6656C48.9162 15.9698 48.6577 16.3975 48.5641 16.8735C48.5116 17.0579 48.4804 17.2477 48.4711 17.4392V18.8344C48.4711 19.4383 48.6571 19.9658 49.0317 20.3812C49.2118 20.5836 49.434 20.7443 49.6827 20.8519C49.9313 20.9595 50.2005 21.0115 50.4714 21.0042C51.1633 21.0042 51.7061 20.7392 52.0985 20.1926C52.4909 19.6651 52.6782 18.949 52.6782 18.0622ZM71.3607 15.3076H69.3221V19.381C69.3221 20.4194 69.6776 20.9278 70.4064 20.9278C70.7427 20.9278 71.0052 20.9099 71.2295 20.8335L71.2855 22.2477C70.93 22.3803 70.4446 22.4554 69.8458 22.4554C69.117 22.4554 68.5551 22.2299 68.1435 21.7776C67.732 21.324 67.5269 20.5697 67.5269 19.5135V15.2885H66.3088V13.8933H67.5243V12.3644L69.3387 11.8178V13.9111H71.3773L71.3581 15.3076H71.3607ZM79.4208 21.1928C80.1496 20.362 80.5242 19.3071 80.5242 18.024C80.5242 16.7792 80.1674 15.7408 79.4386 14.9496C78.7098 14.1379 77.7186 13.7226 76.5031 13.7226C75.2506 13.7226 74.2402 14.1379 73.4923 14.9674C72.7444 15.7981 72.3711 16.8531 72.3711 18.1553C72.3711 19.4001 72.7253 20.4372 73.4541 21.2488C74.1842 22.0604 75.1563 22.4745 76.3718 22.4745C77.6434 22.4745 78.6538 22.0413 79.4208 21.1928ZM78.6168 18.061C78.6168 17.2876 78.4474 16.6276 78.1301 16.081C77.7377 15.421 77.1949 15.0808 76.4661 15.0808C75.7182 15.0808 75.1563 15.421 74.7639 16.081C74.4275 16.6289 74.2784 17.3067 74.2784 18.0992C74.2784 18.8726 74.4466 19.5326 74.7639 20.0792C75.1563 20.7392 75.7182 21.0794 76.447 21.0794C77.158 21.0794 77.6995 20.7392 78.111 20.0601C78.4474 19.4944 78.6168 18.8344 78.6168 18.061ZM85.9469 15.477C86.1342 15.477 86.3393 15.4962 86.5266 15.5344V13.7608C86.3717 13.7379 86.2155 13.7252 86.059 13.7226C85.5914 13.7226 85.1238 13.8933 84.7314 14.1762C84.3033 14.5172 83.9843 14.976 83.814 15.4962H83.7592L83.684 13.8933H82.0761C82.1143 14.7788 82.1321 15.6465 82.1321 16.5333V22.2669H83.9834V17.8724C83.9834 17.1933 84.1516 16.6467 84.451 16.2122C84.7874 15.723 85.292 15.477 85.9469 15.477ZM94.7918 17.7029C94.7918 17.9858 94.774 18.2687 94.7179 18.5515H89.1793C89.1984 19.3822 89.4596 20.0231 89.9846 20.4563C90.4509 20.8526 91.0497 21.0424 91.7976 21.0424C92.6207 21.0424 93.3686 20.9099 94.0414 20.6449L94.3217 21.9279C93.5368 22.2681 92.6016 22.4376 91.5365 22.4376C90.2458 22.4376 89.2354 22.0604 88.5066 21.2871C87.7765 20.5137 87.4032 19.4944 87.4032 18.2126C87.4032 16.9487 87.7396 15.8924 88.4314 15.0617C89.1424 14.1571 90.1145 13.7239 91.33 13.7239C92.5277 13.7239 93.4438 14.1762 94.0414 15.0617C94.5472 15.779 94.7906 16.6467 94.7906 17.7029H94.7918ZM92.6793 15.779C92.9214 16.174 93.0539 16.6658 93.0348 17.2124H89.1793C89.2221 16.6873 89.41 16.1844 89.7221 15.7599C90.0967 15.2503 90.6012 15.0056 91.2001 15.0056C91.8728 15.0056 92.3595 15.2503 92.6768 15.779H92.6793ZM27.7309 1.51775C27.9347 1.47952 28.1793 1.46168 28.4597 1.46168C29.8064 1.46168 30.5161 2.19685 30.5161 3.51685C30.5161 5.00757 29.7312 5.80008 28.3475 5.80008C28.0481 5.80008 27.843 5.80008 27.7296 5.78097L27.7309 1.51775ZM34.5181 6.59258C33.3217 6.59258 32.556 5.68668 32.556 4.47881C32.556 3.21615 33.3408 2.31025 34.5946 2.31025C35.7719 2.31025 36.5567 3.15882 36.5567 4.42275C36.5567 5.68668 35.7336 6.59258 34.5181 6.59258ZM33.4708 4.46097C33.4708 3.59329 33.9014 2.97025 34.5563 2.97025C35.1921 2.97025 35.6215 3.59329 35.6037 4.44186C35.6037 5.27132 35.173 5.93259 34.5372 5.93259C33.9014 5.93259 33.4708 5.30827 33.4708 4.46097ZM43.3644 2.38542L42.0928 6.49702H41.2519L40.7269 4.70561C40.597 4.2724 40.4848 3.81881 40.3906 3.36777H40.3714C40.2975 3.81881 40.1854 4.2724 40.0351 4.70561L39.4745 6.49702H38.6335L37.4359 2.38542H38.3711L38.8387 4.34758C38.9508 4.819 39.0438 5.2522 39.119 5.66757H39.1381L39.147 5.6268C39.2196 5.29425 39.3126 4.87251 39.4745 4.34758L40.0542 2.38542H40.8021L41.3627 4.30935C41.4939 4.78078 41.6061 5.23437 41.6991 5.66757H41.7182C41.7743 5.2522 41.8685 4.80116 41.9985 4.30935L42.5043 2.38542H43.3644ZM47.1613 6.49702H48.0582L48.0378 4.04561C48.0378 2.97025 47.4772 2.31025 46.6172 2.31025C46.0744 2.31025 45.5699 2.59311 45.3265 3.02758H45.3074L45.2692 2.38542H44.4665C44.5047 2.80079 44.5047 3.19704 44.5047 3.55507V6.4983H45.4195V4.04561C45.4195 3.51685 45.7941 3.04542 46.3369 3.04542C46.8784 3.04542 47.1587 3.40472 47.1587 4.13989V6.49702H47.1613ZM51.9099 4.47881C51.9099 5.68668 52.6769 6.59258 53.8733 6.59258C55.0889 6.59258 55.9119 5.68668 55.9119 4.42275C55.9119 3.15882 55.1271 2.31025 53.9498 2.31025C52.696 2.31025 51.9099 3.21488 51.9099 4.47881ZM53.9103 2.97025C53.2567 2.97025 52.8273 3.59329 52.8273 4.46097C52.8273 5.30954 53.2567 5.93131 53.8924 5.93131C54.5295 5.93131 54.9589 5.27132 54.9589 4.44059C54.9589 3.59329 54.5461 2.97025 53.9103 2.97025ZM59.4094 6.0256L59.4846 6.49702L60.3064 6.47919C60.2638 6.15396 60.2451 5.82606 60.2503 5.49811V3.98955C60.2503 2.85685 59.7088 2.29114 58.6424 2.29114C58.0818 2.29114 57.6142 2.40581 57.2408 2.65044L57.4269 3.2531C57.7434 3.04642 58.1154 2.94109 58.4933 2.95114C59.0539 2.95114 59.3342 3.21615 59.3342 3.76275V3.8392C57.8193 3.8392 56.9402 4.36669 56.9402 5.38471C56.9402 6.08293 57.4651 6.59258 58.1939 6.59258C58.7163 6.59258 59.1113 6.40274 59.3916 6.0256H59.4094ZM59.3533 4.44186C58.343 4.44186 57.8384 4.68649 57.8384 5.27132C57.8384 5.70452 58.1009 5.91347 58.4551 5.91347C58.9227 5.91347 59.3533 5.55417 59.3533 5.08275V4.44186ZM64.6078 5.83703L64.6461 6.49702H65.487C65.4639 6.12668 65.4512 5.75577 65.4488 5.38471V0.480609H64.5339V2.87596H64.5148C64.2906 2.49882 63.8981 2.31025 63.3554 2.31025C62.308 2.31025 61.5589 3.21488 61.5589 4.49792C61.5589 5.7249 62.2889 6.59258 63.2802 6.59258C63.8981 6.59258 64.3275 6.32756 64.59 5.83703H64.6078ZM64.5148 4.08383C64.5148 3.49774 64.1402 3.00847 63.5605 3.00847C62.8878 3.00847 62.4762 3.61241 62.4762 4.46097C62.4762 5.29043 62.9069 5.85614 63.5427 5.85614C64.1224 5.85614 64.5148 5.34649 64.5148 4.76294V4.08383ZM69.2278 4.47881C69.2278 5.68668 69.9936 6.59258 71.19 6.59258C72.4068 6.59258 73.2286 5.68668 73.2286 4.42275C73.2286 3.15882 72.4437 2.31025 71.2664 2.31025C70.0127 2.31025 69.2278 3.21488 69.2278 4.47881ZM71.2282 2.97025C70.5733 2.97025 70.1617 3.59329 70.1617 4.46097C70.1617 5.30954 70.5924 5.93131 71.2282 5.93131C71.8652 5.93131 72.2946 5.27132 72.2946 4.44059C72.2755 3.59329 71.864 2.97025 71.2282 2.97025ZM77.1936 6.49702H78.0919V4.04561C78.0919 2.97025 77.5313 2.31025 76.67 2.31025C76.1285 2.31025 75.6226 2.59311 75.3793 3.02758H75.3614L75.3232 2.38542H74.5205C74.5575 2.80079 74.5575 3.19704 74.5575 3.55507V6.4983H75.4736V4.04561C75.4736 3.51685 75.829 3.04542 76.3705 3.04542C76.9133 3.04542 77.1936 3.40472 77.1936 4.13989V6.49702ZM84.2064 3.06453H83.2151V5.06491C83.2151 5.57456 83.3833 5.81919 83.7388 5.81919C83.907 5.81919 84.0382 5.80008 84.1504 5.78097L84.1695 6.47919C84.0013 6.55436 83.7579 6.57347 83.4585 6.57347C82.7475 6.57347 82.3182 6.17722 82.3182 5.14008V3.06453H81.7193V2.38542H82.3182V1.63114L83.2151 1.3674V2.3867H84.2064V3.06453ZM88.1154 6.49702H89.0124V4.0265C89.0124 2.95114 88.49 2.27203 87.6287 2.27203C87.0872 2.27203 86.6757 2.49882 86.3941 2.95114H86.3762V0.480609H85.478V6.51741H86.3762V4.0265C86.3762 3.3665 86.8247 3.04542 87.2923 3.04542C87.8351 3.04542 88.1154 3.42256 88.1154 4.15901V6.49702ZM93.9305 4.66866H91.2014C91.2192 5.44077 91.7237 5.89436 92.4908 5.89436C92.9023 5.89436 93.2578 5.81791 93.5942 5.70579L93.7445 6.34668C93.3508 6.51614 92.9036 6.59258 92.3786 6.59258C91.1071 6.59258 90.34 5.78097 90.34 4.51703C90.34 3.2531 91.1071 2.31025 92.2665 2.31025C93.3139 2.31025 93.9688 3.08364 93.9688 4.2724C93.9688 4.38453 93.9688 4.51703 93.9305 4.66738V4.66866ZM92.2105 2.91419C92.7902 2.91419 93.1087 3.3665 93.1087 4.00738H91.2179C91.274 3.3665 91.6868 2.91419 92.2105 2.91419Z" fill="white"/>
</g>
<defs>
<clipPath id="clip0_3775_17360">
<rect width="95.5593" height="25.4825" fill="white" transform="translate(0.0546875 0.197754)"/>
</clipPath>
</defs>
</svg>
