<svg width="248" height="268" viewBox="0 0 248 268" fill="none" xmlns="http://www.w3.org/2000/svg">
<path fill-rule="evenodd" clip-rule="evenodd" d="M-52.5612 306.475C-48.1024 301.061 -48.8772 293.055 -54.2915 288.596C-56.4917 286.784 -59.1208 285.835 -61.7619 285.714C-62.2429 285.687 -62.7157 285.695 -63.1963 285.722L-163.435 286.641C-166.382 286.708 -169.358 285.764 -171.815 283.75L-194.287 265.234C-199.596 260.862 -200.446 253.086 -196.272 247.675L-196.012 247.36L-195.753 247.045L-185.702 234.84L-116.86 151.247L-78.0064 104.067L-76.9425 102.775C-74.5854 100.266 -71.4155 98.9103 -68.1751 98.7851L-67.4365 98.7762L-5.8081 98.2106L118.622 97.0673L119.559 97.0539C122.288 97.133 125.008 98.078 127.277 99.9462C129.551 101.819 131.005 104.312 131.601 106.98L131.765 107.873L139.387 148.883L165.787 290.931L165.863 291.373C166.435 294.788 165.607 298.416 163.304 301.33L163.139 301.53L162.975 301.729L137.152 333.086L123.741 349.371L69.5644 415.157L44.7402 445.3L44.576 445.5L44.4116 445.699C39.9773 450.869 32.2398 451.619 26.8963 447.394L26.6967 447.23L26.4973 447.066L-3.6464 422.241L-49.4556 384.516L-79.5993 359.692L-79.7986 359.528L-79.9983 359.363C-85.1686 354.929 -85.9174 347.192 -81.6933 341.848L-81.5289 341.649L-81.3647 341.449L-52.5616 306.474L-52.5612 306.475ZM-90.3455 233.964L10.9361 233.031L11.0276 233.027C13.815 233.013 16.6275 233.911 18.977 235.766L19.1767 235.931L19.3764 236.095L41.1964 254.065L41.3958 254.229L41.5955 254.393C46.7658 258.827 47.5092 266.561 43.2854 271.904L43.1209 272.104L42.9565 272.303L-8.15378 334.366C-8.20553 334.429 -8.262 334.497 -8.31822 334.566C-8.36997 334.628 -8.42644 334.697 -8.48239 334.765C-12.7065 340.108 -11.9577 347.846 -6.78734 352.28C-6.71907 352.337 -6.65081 352.393 -6.58798 352.445C-6.51972 352.501 -6.45146 352.557 -6.3883 352.609L19.4126 373.857C19.4808 373.913 19.544 373.965 19.6122 374.021C19.6805 374.077 19.7437 374.129 19.8119 374.186C25.155 378.41 32.8928 377.661 37.3271 372.49C37.3833 372.422 37.4395 372.354 37.4913 372.291C37.5475 372.223 37.6037 372.155 37.6557 372.091L107.603 287.134C109.856 284.398 110.775 281.004 110.43 277.741C110.36 277.066 110.242 276.396 110.058 275.742L101.972 232.192L88.5404 159.924C88.5224 159.838 88.5096 159.757 88.4929 159.682C87.9394 156.908 86.4642 154.301 84.1063 152.359C81.8483 150.499 79.132 149.549 76.4171 149.464C76.0877 149.457 75.7595 149.46 75.4373 149.476L-42.3535 150.562C-42.6593 150.548 -42.9591 150.548 -43.2578 150.558C-46.8005 150.654 -50.2826 152.228 -52.7315 155.191L-100.494 213.189C-104.953 218.603 -104.178 226.609 -98.7642 231.068C-96.4376 232.984 -93.6346 233.935 -90.8425 233.97C-90.6735 233.968 -90.5085 233.971 -90.345 233.965L-90.3455 233.964Z" stroke="#FFBEBE" stroke-width="2.6669" stroke-miterlimit="10"/>
</svg>
