<?xml version="1.0" encoding="UTF-8"?>
<!DOCTYPE svg PUBLIC "-//W3C//DTD SVG 1.1//EN" "http://www.w3.org/Graphics/SVG/1.1/DTD/svg11.dtd">
<!-- Creator: CorelDRAW 2021 (64-Bit Evaluation Version) -->
<svg xmlns="http://www.w3.org/2000/svg" xml:space="preserve" width="4.3497in" height="0.905965in" version="1.1" style="shape-rendering:geometricPrecision; text-rendering:geometricPrecision; image-rendering:optimizeQuality; fill-rule:evenodd; clip-rule:evenodd"
viewBox="0 0 43461.1 9052.2"
 xmlns:xlink="http://www.w3.org/1999/xlink"
 xmlns:xodm="http://www.corel.com/coreldraw/odm/2003">
 <defs>
  <style type="text/css">
   <![CDATA[
    .fil1 {fill:#276EE4}
    .fil0 {fill:#010135;fill-rule:nonzero}
   ]]>
  </style>
 </defs>
 <g id="Layer_x0020_1">
  <metadata id="CorelCorpID_0Corel-Layer"/>
  <g id="_1972396253952">
   <polygon class="fil0" points="10820.5,7118.1 13473.7,7118.1 13473.7,6574.2 11558.3,6574.2 11558.3,3807.5 10820.5,3807.5 "/>
   <path class="fil0" d="M17908.6 7193.8c936.4,0 1489.8,-558.1 1489.8,-1494.5l0 -1882.3 -752 0 0 1882.3c0,506 -274.3,808.7 -737.8,808.7 -468.2,0 -742.5,-302.7 -742.5,-808.7l0 -1882.3 -752 0 0 1882.3c0,936.4 553.4,1494.5 1494.5,1494.5z"/>
   <path class="fil0" d="M22575.2 5231l0 1887.1 752 0 0 -1887.1c0,-506 274.3,-804 742.5,-804 463.5,0 737.8,297.9 737.8,804l0 1887.1 752 0 0 -1887.1c0,-936.4 -553.3,-1489.8 -1489.8,-1489.8 -941.2,0 -1494.5,553.3 -1494.5,1489.8z"/>
   <polygon class="fil0" points="28736.3,3807.5 28736.3,7118.1 31403.7,7118.1 31403.7,6574.2 29488.3,6574.2 29488.3,5732.3 31261.8,5732.3 31261.8,5188.5 29488.3,5188.5 29488.3,4351.4 31375.3,4351.4 31375.3,3807.5 "/>
   <path class="fil0" d="M36041.9 7193.8c927,0 1480.3,-416.2 1480.3,-1126.4 0,-1257.3 -2227.6,-520.2 -2227.6,-1318.8 0,-264.8 231.7,-472.9 718.9,-472.9 425.6,0 695.2,241.2 723.6,638.4l752 0c-28.4,-742.5 -572.3,-1182.4 -1461.4,-1182.4 -908.1,0 -1447.2,383.1 -1447.2,993.2 0,1474.8 2189.7,638.5 2189.7,1422.8 0,312.9 -274.3,502.1 -728.3,502.1 -416.2,0 -676.3,-217.6 -709.4,-582.5l-752 0c28.4,710.2 577,1126.4 1461.4,1126.4z"/>
   <polygon class="fil0" points="43461.1,3807.5 40509.9,3807.5 40509.9,4379.8 41611.8,4379.8 41611.8,7118.1 42363.8,7118.1 42363.8,4379.8 43461.1,4379.8 "/>
   <path class="fil1" d="M4454.1 7463.7c0,-191.3 155,-346.4 346.3,-346.4 77.7,0 149.3,25.6 207.1,68.7 10.5,7.8 20.5,16.2 30,25.1l2093.9 1756.7c60.7,52.4 139.8,84.3 226.3,84.3l793.8 -0c187.6,0 340.3,-149.1 346.2,-335.2l0 -11.2 0 -11.2 0 -431.1 0 -2952.5 0 -1666.3 0 -45.6c-6.1,-93.6 -49.4,-177.1 -115.3,-235.8l-15.5 -13 -1287.3 -1080.2 -2598.9 -2180.8 -19.6 -16.4c-58.7,-45.7 -132.5,-72.9 -212.6,-72.9 -80.2,0 -154.1,27.3 -212.8,73l-18.9 15.9 -871.3 731.1 -3017.5 2532 -9.4 7.9c-71.1,62 -116.7,152.7 -118.7,254l0 7 0 7 0 1107.4 0 575.2 0 2323.5 0 1064.7 0 7 0 7c3.7,185.8 153.6,335.5 339.2,339.2l7.1 0 7 0 1064.8 0 1617.9 0 1064.8 0 7 0 7.1 0c185.7,-3.7 335.5,-153.5 339.2,-339.2l0 -7 0 -7 0.1 -1235.2zm2052 -871.4l-2115.5 -1775.1 -1.9 -1.6c-58.3,-48.7 -133.1,-78.6 -214.7,-80.2l-7 0 -7.1 0 -770.6 0 -7 0 -7.1 0c-185.7,3.7 -335.5,153.6 -339.2,339.2l0 7 0 7 0 2192.1c0.1,2.3 0.1,4.7 0.1,7.1 0,2.3 0,4.6 -0.1,7 -3.7,185.7 -153.5,335.5 -339.2,339.2 -2.4,0 -4.7,0 -7.1,0 -2.4,0 -4.8,-0 -7,-0l-911.3 0c-2.2,0 -4.6,0 -7,0 -2.4,0 -4.7,-0 -7,-0 -185.7,-3.7 -335.5,-153.6 -339.2,-339.2 0,-2.4 -0.1,-4.7 -0.1,-7 0,-2.4 0.1,-4.8 0.1,-7.1l0.3 -3000.3c0,-96.6 39.6,-183.9 103.4,-246.8 13.2,-12.9 27.3,-24.9 42.4,-35.6l925.1 -776.3 1535.3 -1288.3c1.7,-1.4 3.4,-2.8 5.1,-4.2 59.7,-48.8 136,-78.2 219.2,-78.2 79.9,0 153.5,27.1 212,72.5 7.1,5.6 13.9,11.3 20.5,17.3l2460.3 2064.3c6.6,5 12.9,10.1 19.1,15.5 72.8,63.5 118.8,157 119,261.8l0 2048.4c0,191.3 -155.1,346.3 -346.4,346.3 -82.1,0 -157.6,-28.6 -217,-76.3 -3.5,-2.8 -6.9,-5.7 -10.3,-8.7z"/>
  </g>
 </g>
</svg>
