<svg width="25" height="24" viewBox="0 0 25 24" fill="none" xmlns="http://www.w3.org/2000/svg">
<path d="M17.5 7C17.5 4.64298 17.5 3.46447 16.7678 2.73223C16.0355 2 14.857 2 12.5 2H9.5C7.14298 2 5.96447 2 5.23223 2.73223C4.5 3.46447 4.5 4.64298 4.5 7V17C4.5 19.357 4.5 20.5355 5.23223 21.2678C5.96447 22 7.14298 22 9.5 22H12.5C14.857 22 16.0355 22 16.7678 21.2678C17.5 20.5355 17.5 19.357 17.5 17V16" stroke="#141B34" stroke-linecap="round" stroke-linejoin="round"/>
<path d="M13 2H9L9.5 3H12.5L13 2Z" stroke="#141B34" stroke-linecap="round" stroke-linejoin="round"/>
<path d="M12.5 12.5C12.5 12.5 13.8485 13.0067 14.5 15C14.5 15 17.6765 10 20.5 9" stroke="#141B34" stroke-linecap="round" stroke-linejoin="round"/>
</svg>
