<svg width="16" height="20" viewBox="0 0 16 20" fill="none" xmlns="http://www.w3.org/2000/svg">
<path d="M4.62814 10.6736H4.16918C2.68545 10.6736 1.94358 10.6736 1.62736 10.1844C1.31114 9.6953 1.61244 9.0138 2.21504 7.65083L4.02668 3.55323C4.57457 2.314 4.84852 1.69438 5.37997 1.34719C5.91142 1 6.5859 1 7.935 1H10.0244C11.6632 1 12.4826 1 12.7916 1.53535C13.1007 2.0707 12.6942 2.78588 11.8811 4.21623L10.8092 6.10188C10.405 6.81295 10.2029 7.16849 10.2057 7.45952C10.2094 7.83775 10.4105 8.1862 10.7354 8.377C10.9854 8.5239 11.3927 8.5239 12.2074 8.5239C13.2373 8.5239 13.7523 8.5239 14.0205 8.7022C14.3689 8.9338 14.5513 9.3482 14.4874 9.7632C14.4382 10.0826 14.0918 10.4656 13.399 11.2317L7.8639 17.3523C6.7767 18.5545 6.2331 19.1556 5.86807 18.9654C5.50303 18.7751 5.67833 17.9822 6.0289 16.3962L6.7157 13.2896C6.9826 12.082 7.1161 11.4782 6.7951 11.0759C6.4741 10.6736 5.85877 10.6736 4.62814 10.6736Z" stroke="url(#paint0_linear_3768_15821)" stroke-width="1.5" stroke-linejoin="round"/>
<defs>
<linearGradient id="paint0_linear_3768_15821" x1="2.8325" y1="5.54946" x2="14.2611" y2="6.99855" gradientUnits="userSpaceOnUse">
<stop offset="0.322115" stop-color="#1434CB"/>
<stop offset="0.942308" stop-color="#BFCAFF"/>
</linearGradient>
</defs>
</svg>
