<svg width="250" height="269" viewBox="0 0 250 269" fill="none" xmlns="http://www.w3.org/2000/svg">
<g clip-path="url(#clip0_3757_43345)">
<path fill-rule="evenodd" clip-rule="evenodd" d="M-52.5612 307.475C-48.1024 302.061 -48.8772 294.055 -54.2915 289.596C-56.4917 287.784 -59.1208 286.835 -61.7619 286.714C-62.2429 286.687 -62.7157 286.695 -63.1963 286.722L-163.435 287.641C-166.382 287.708 -169.358 286.764 -171.815 284.75L-194.287 266.234C-199.596 261.862 -200.446 254.086 -196.272 248.675L-196.012 248.36L-195.753 248.045L-185.702 235.84L-116.86 152.247L-78.0064 105.067L-76.9425 103.775C-74.5854 101.266 -71.4155 99.9103 -68.1751 99.7851L-67.4365 99.7762L-5.8081 99.2106L118.622 98.0673L119.559 98.0539C122.288 98.133 125.008 99.078 127.277 100.946C129.551 102.819 131.005 105.312 131.601 107.98L131.765 108.873L139.387 149.883L165.787 291.931L165.863 292.373C166.435 295.788 165.607 299.416 163.304 302.33L163.139 302.53L162.975 302.729L137.152 334.086L123.741 350.371L69.5644 416.157L44.7402 446.3L44.576 446.5L44.4116 446.699C39.9773 451.869 32.2398 452.619 26.8963 448.394L26.6967 448.23L26.4973 448.066L-3.6464 423.241L-49.4556 385.516L-79.5993 360.692L-79.7986 360.528L-79.9983 360.363C-85.1686 355.929 -85.9174 348.192 -81.6933 342.848L-81.5289 342.649L-81.3647 342.449L-52.5616 307.474L-52.5612 307.475ZM-90.3455 234.964L10.9361 234.031L11.0276 234.027C13.815 234.013 16.6275 234.911 18.977 236.766L19.1767 236.931L19.3764 237.095L41.1964 255.065L41.3958 255.229L41.5955 255.393C46.7658 259.827 47.5092 267.561 43.2854 272.904L43.1209 273.104L42.9565 273.303L-8.15378 335.366C-8.20553 335.429 -8.262 335.497 -8.31822 335.566C-8.36997 335.628 -8.42644 335.697 -8.48239 335.765C-12.7065 341.108 -11.9577 348.846 -6.78734 353.28C-6.71907 353.337 -6.65081 353.393 -6.58798 353.445C-6.51972 353.501 -6.45146 353.557 -6.3883 353.609L19.4126 374.857C19.4808 374.913 19.544 374.965 19.6122 375.021C19.6805 375.077 19.7437 375.129 19.8119 375.186C25.155 379.41 32.8928 378.661 37.3271 373.49C37.3833 373.422 37.4395 373.354 37.4913 373.291C37.5475 373.223 37.6037 373.155 37.6557 373.091L107.603 288.134C109.856 285.398 110.775 282.004 110.43 278.741C110.36 278.066 110.242 277.396 110.058 276.742L101.972 233.192L88.5404 160.924C88.5224 160.838 88.5096 160.757 88.4929 160.682C87.9394 157.908 86.4642 155.301 84.1063 153.359C81.8483 151.499 79.132 150.549 76.4171 150.464C76.0877 150.457 75.7595 150.46 75.4373 150.476L-42.3535 151.562C-42.6593 151.548 -42.9591 151.548 -43.2578 151.558C-46.8005 151.654 -50.2826 153.228 -52.7315 156.191L-100.494 214.189C-104.953 219.603 -104.178 227.609 -98.7642 232.068C-96.4376 233.984 -93.6346 234.935 -90.8425 234.97C-90.6735 234.968 -90.5085 234.971 -90.345 234.965L-90.3455 234.964Z" stroke="#B3CEFF" stroke-width="2.6669" stroke-miterlimit="10"/>
</g>
<defs>
<clipPath id="clip0_3757_43345">
<rect width="314.344" height="334.685" fill="white" transform="matrix(-0.77193 -0.635707 -0.635707 0.77193 249.413 199.831)"/>
</clipPath>
</defs>
</svg>
