<svg width="214" height="205" viewBox="0 0 214 205" fill="none" xmlns="http://www.w3.org/2000/svg">
<path fill-rule="evenodd" clip-rule="evenodd" d="M152.439 55.475C156.898 50.0608 156.123 42.0548 150.709 37.596C148.508 35.784 145.879 34.8351 143.238 34.7135C142.757 34.6873 142.284 34.6946 141.804 34.7217L41.5647 35.6407C38.6184 35.7083 35.6417 34.7637 33.1849 32.7496L10.7126 14.2344C5.40362 9.86231 4.55419 2.08609 8.72827 -3.32499L8.9878 -3.64014L9.24733 -3.95528L19.2982 -16.1599L88.1399 -99.7535L126.994 -146.933L128.057 -148.225C130.415 -150.734 133.584 -152.09 136.825 -152.215L137.563 -152.224L199.192 -152.789L323.622 -153.933L324.559 -153.946C327.288 -153.867 330.008 -152.922 332.277 -151.054C334.551 -149.181 336.005 -146.688 336.601 -144.02L336.765 -143.127L344.387 -102.117L370.787 39.9311L370.863 40.3731C371.435 43.7879 370.607 47.4156 368.304 50.3304L368.139 50.5301L367.975 50.7295L342.152 82.0862L328.741 98.3711L274.564 164.157L249.74 194.3L249.576 194.5L249.412 194.699C244.977 199.869 237.24 200.619 231.896 196.394L231.697 196.23L231.497 196.066L201.354 171.241L155.544 133.516L125.401 108.692L125.201 108.528L125.002 108.363C119.831 103.929 119.083 96.1916 123.307 90.8484L123.471 90.6488L123.635 90.4494L152.438 55.4742L152.439 55.475ZM114.655 -17.0364L215.936 -17.9693L216.028 -17.9732C218.815 -17.9869 221.627 -17.0893 223.977 -15.2336L224.177 -15.0692L224.376 -14.9047L246.196 3.06474L246.396 3.22891L246.595 3.39335C251.766 7.82734 252.509 15.5607 248.285 20.904L248.121 21.1037L247.957 21.3034L196.846 83.3659C196.794 83.4288 196.738 83.4973 196.682 83.5656C196.63 83.6284 196.574 83.697 196.518 83.765C192.294 89.1081 193.042 96.8459 198.213 101.28C198.281 101.337 198.349 101.393 198.412 101.445C198.48 101.501 198.549 101.557 198.612 101.609L224.413 122.857C224.481 122.913 224.544 122.965 224.612 123.021C224.681 123.077 224.744 123.129 224.812 123.186C230.155 127.41 237.893 126.661 242.327 121.49C242.383 121.422 242.44 121.354 242.491 121.291C242.547 121.223 242.604 121.155 242.656 121.091L312.603 36.1341C314.856 33.3979 315.775 30.0036 315.43 26.7407C315.36 26.0662 315.242 25.3962 315.058 24.7421L306.972 -18.8084L293.54 -91.0765C293.522 -91.1619 293.51 -91.2426 293.493 -91.3185C292.939 -94.0921 291.464 -96.6994 289.106 -98.6411C286.848 -100.501 284.132 -101.451 281.417 -101.536C281.088 -101.543 280.759 -101.54 280.437 -101.524L162.646 -100.438C162.341 -100.452 162.041 -100.452 161.742 -100.442C158.2 -100.346 154.717 -98.7716 152.268 -95.809L104.506 -37.8112C100.047 -32.3969 100.822 -24.3909 106.236 -19.9321C108.562 -18.0161 111.365 -17.0647 114.158 -17.0302C114.326 -17.0319 114.491 -17.0288 114.655 -17.0349L114.655 -17.0364Z" stroke="#FFBEBE" stroke-width="2.6669" stroke-miterlimit="10"/>
</svg>
