<svg width="99" height="25" viewBox="0 0 99 25" fill="none" xmlns="http://www.w3.org/2000/svg">
<g clip-path="url(#clip0_3775_17365)">
<path fill-rule="evenodd" clip-rule="evenodd" d="M31.9807 14.6898V16.2209H35.6392C35.5808 16.9456 35.2886 17.6236 34.7977 18.1612C34.0496 18.921 33.0327 19.3301 31.969 19.295C30.8861 19.2888 29.8498 18.8535 29.0873 18.0844C28.3248 17.3154 27.8983 16.2753 27.9014 15.1924C27.8983 14.1094 28.3248 13.0694 29.0873 12.3003C29.8498 11.5312 30.8861 11.0959 31.969 11.0897C33.0093 11.0663 34.0028 11.4637 34.7392 12.1884L35.8263 11.1014C35.3264 10.5889 34.7281 10.1828 34.0672 9.90761C33.4063 9.63241 32.6966 9.49378 31.9807 9.50005C30.9719 9.46289 29.9719 9.69975 29.0869 10.1855C28.2019 10.6712 27.4651 11.3876 26.9547 12.2585C26.4375 13.1349 26.1648 14.1339 26.1648 15.1514C26.1648 16.169 26.4375 17.168 26.9547 18.0444C27.4651 18.9153 28.2019 19.6317 29.0869 20.1174C29.9719 20.6031 30.9719 20.84 31.9807 20.8028C32.7075 20.834 33.4324 20.7081 34.1061 20.4338C34.7798 20.1595 35.3864 19.7432 35.8847 19.2132C36.7716 18.2277 37.2446 16.9384 37.2055 15.6131C37.2055 15.2859 37.1821 14.9586 37.1237 14.643L31.9807 14.6898ZM41.3783 13.5677C40.4234 13.5769 39.5107 13.9627 38.8388 14.6413C38.1668 15.3198 37.7899 16.2361 37.7899 17.1911C37.7899 18.1481 38.1684 19.0662 38.8429 19.745C39.5174 20.4239 40.433 20.8084 41.39 20.8145C42.3469 20.8084 43.2626 20.4239 43.937 19.745C44.6115 19.0662 44.9901 18.1481 44.99 17.1911C44.9969 16.7102 44.9073 16.2329 44.7267 15.7872C44.546 15.3415 44.2778 14.9366 43.9381 14.5962C43.6029 14.2561 43.2022 13.9874 42.7602 13.8066C42.3182 13.6258 41.8441 13.5366 41.3666 13.5443H41.3783V13.5677ZM45.6797 17.2145C45.6759 16.4993 45.8839 15.799 46.2774 15.2018C46.6709 14.6046 47.2324 14.1373 47.891 13.8586C48.5497 13.5799 49.276 13.5023 49.9787 13.6356C50.6813 13.769 51.3288 14.1073 51.8395 14.6079C52.5291 15.2976 52.8915 16.2326 52.8915 17.2028C52.8915 18.1597 52.513 19.0779 51.8385 19.7567C51.164 20.4356 50.2484 20.82 49.2914 20.8262C48.3324 20.8231 47.4138 20.44 46.7368 19.7608C46.0598 19.0816 45.6797 18.1618 45.6797 17.2028V17.2145ZM47.1407 18.1495C47.5265 18.9677 48.3797 19.4704 49.268 19.4002C49.8291 19.4002 50.3668 19.1548 50.7525 18.734C51.1265 18.3132 51.3369 17.7638 51.3018 17.2028C51.3018 16.2911 50.7525 15.4846 49.9109 15.1456C49.5016 14.9861 49.0535 14.9543 48.6258 15.0545C48.1981 15.1546 47.8107 15.382 47.5148 15.7067C47.215 16.032 47.0193 16.4395 46.9527 16.8768C46.886 17.3141 46.9515 17.7614 47.1407 18.1612V18.1495ZM39.251 18.1612C39.6367 18.9794 40.49 19.4704 41.3783 19.4002C41.9393 19.4002 42.4653 19.1548 42.851 18.734C43.2368 18.3132 43.4355 17.7638 43.4004 17.2028C43.4004 16.2911 42.851 15.4846 42.0095 15.1456C41.6002 14.9861 41.1521 14.9543 40.7244 15.0545C40.2966 15.1546 39.9093 15.382 39.6133 15.7067C39.3155 16.0333 39.1219 16.4413 39.0574 16.8786C38.9928 17.3159 39.0603 17.7625 39.251 18.1612ZM67.3034 13.5677C67.99 13.5963 68.6517 13.833 69.2007 14.2463C69.7497 14.6597 70.1601 15.2301 70.3775 15.882L70.5528 16.2677L65.7371 18.2781C66.041 18.9794 66.7307 19.4119 67.4904 19.3768C68.2034 19.3768 68.8814 19.0028 69.2437 18.3716L70.4827 19.2249C70.1558 19.7225 69.7098 20.1307 69.1853 20.4124C68.6607 20.6941 68.0741 20.8403 67.4787 20.8379C67.005 20.8438 66.5349 20.7536 66.097 20.5728C65.659 20.392 65.2623 20.1243 64.9306 19.7859C64.5954 19.4458 64.3317 19.0421 64.1551 18.5984C63.9784 18.1547 63.8924 17.6802 63.902 17.2028C63.8436 16.256 64.1826 15.3326 64.8138 14.6313C65.1316 14.2934 65.5157 14.0245 65.942 13.8415C66.3683 13.6585 66.8278 13.5653 67.2917 13.5677H67.3034ZM65.4566 17.0976C65.436 16.8349 65.4684 16.5708 65.5519 16.3209C65.6355 16.071 65.7685 15.8405 65.943 15.6431C66.1175 15.4457 66.3299 15.2855 66.5677 15.1719C66.8054 15.0583 67.0636 14.9937 67.3268 14.982C67.8878 14.9352 68.4138 15.2391 68.671 15.7417L65.4566 17.0976ZM63.1189 20.6158H61.541V9.94422H63.1189V20.6275V20.6158ZM58.9461 14.3742H58.8877C58.3968 13.8365 57.7188 13.5209 56.9825 13.5209C56.0522 13.569 55.1762 13.9734 54.5363 14.6503C53.8964 15.3272 53.5418 16.2246 53.546 17.156C53.5388 18.0895 53.8921 18.9898 54.5323 19.6692C55.1725 20.3486 56.0502 20.7547 56.9825 20.8028C57.3441 20.808 57.7025 20.7331 58.0318 20.5835C58.3612 20.434 58.6535 20.2135 58.8877 19.9379H58.9344V20.4639C58.9344 21.8665 58.1981 22.6029 57.0175 22.6029C56.6198 22.5957 56.2334 22.4693 55.9083 22.2401C55.5832 22.0109 55.3344 21.6893 55.1941 21.3171L53.8149 21.9016C54.074 22.5372 54.5176 23.0806 55.0884 23.4619C55.6592 23.8431 56.3311 24.0447 57.0175 24.0406C58.8643 24.0406 60.4072 22.9301 60.4072 20.2535V13.778H58.9461V14.3742ZM58.5604 18.7223C58.1864 19.1314 57.6721 19.3768 57.1227 19.4002C56.5781 19.3452 56.0734 19.09 55.7062 18.684C55.3391 18.278 55.1358 17.7501 55.1357 17.2028C55.1357 16.0456 56.0006 15.0988 57.1227 14.982C57.3966 14.9968 57.6649 15.066 57.9118 15.1855C58.1588 15.3049 58.3795 15.4723 58.5612 15.6779C58.7428 15.8835 58.8818 16.1231 58.9699 16.3829C59.0581 16.6427 59.0937 16.9174 59.0747 17.1911C59.1214 17.7521 58.9461 18.3015 58.5838 18.7106L58.5604 18.7223ZM74.0009 9.93253V20.6158H75.5906V16.5599H77.7997C78.4043 16.604 79.0093 16.48 79.5477 16.2015C80.0862 15.923 80.537 15.5009 80.8504 14.982C81.4932 13.9183 81.4932 12.5741 80.8504 11.5105C80.537 10.9915 80.0862 10.5695 79.5477 10.291C79.0093 10.0125 78.4043 9.8884 77.7997 9.93253H74.0009ZM75.5789 15.0638H77.7997L77.8231 15.0872C78.8283 15.0872 79.6465 14.269 79.6465 13.2521C79.6465 12.2352 78.8283 11.417 77.8231 11.417H75.5789V15.0638ZM87.5596 13.5209C86.3907 13.4508 85.2686 14.0936 84.7427 15.1573L86.1453 15.7417C86.4258 15.2157 86.9985 14.9118 87.583 14.9586C87.7854 14.9343 87.9907 14.951 88.1865 15.0078C88.3824 15.0645 88.5648 15.16 88.7229 15.2887C88.8811 15.4174 89.0117 15.5766 89.107 15.7569C89.2023 15.9371 89.2604 16.1347 89.2778 16.3378V16.4547C88.7718 16.18 88.2055 16.0354 87.6297 16.0339C86.1102 16.0339 84.579 16.8872 84.579 18.4418C84.589 18.7715 84.666 19.0958 84.8053 19.3949C84.9446 19.6939 85.1434 19.9615 85.3894 20.1813C85.6354 20.4011 85.9236 20.5685 86.2365 20.6733C86.5493 20.7782 86.8801 20.8183 87.2089 20.7912C87.6092 20.8195 88.0097 20.7388 88.3678 20.5576C88.726 20.3765 89.0283 20.1018 89.2427 19.7626H89.2895V20.6158H90.809V16.5015C90.809 14.6313 89.4064 13.5443 87.6063 13.5443L87.5596 13.5209ZM86.1453 18.4768C86.1453 19.108 86.8583 19.3768 87.3726 19.3768L87.4193 19.4002C88.3778 19.3768 89.1726 18.6522 89.2778 17.6937C88.8336 17.4482 88.3427 17.3197 87.8401 17.343C87.0336 17.343 86.1453 17.6119 86.1453 18.4768ZM96.3844 13.778L94.5727 18.4067H94.5259L92.6441 13.778H90.9376L93.7545 20.2535L92.1415 23.8535H93.8013L98.126 13.778H96.3727H96.3844ZM83.7258 20.6158H82.1361V9.94422H83.7258V20.6275V20.6158ZM50.1797 1.61031C49.6974 2.1275 49.4292 2.80836 49.4292 3.51554C49.4292 4.22272 49.6974 4.90358 50.1797 5.42077C51.2083 6.44935 52.8681 6.44935 53.9084 5.42077C54.9136 4.34542 54.9136 2.67397 53.9084 1.61031C53.6646 1.36151 53.3736 1.16385 53.0525 1.02891C52.7314 0.893968 52.3865 0.824463 52.0382 0.824463C51.6899 0.824463 51.3451 0.893968 51.0239 1.02891C50.7028 1.16385 50.4118 1.36151 50.168 1.61031H50.1797ZM31.0807 5.43245C31.2947 5.20464 31.4607 4.93624 31.5692 4.64312C31.6776 4.35001 31.7261 4.03813 31.7119 3.72593L31.6768 3.34021H29.2222V3.94801H31.0457C31.0457 4.34542 30.882 4.70777 30.6249 4.99998C30.3416 5.27638 29.9821 5.46188 29.5927 5.53268C29.2033 5.60349 28.8016 5.55638 28.4391 5.39739C28.0776 5.23746 27.7709 4.97508 27.5569 4.6427C27.343 4.31032 27.2311 3.92251 27.2352 3.52723C27.2235 2.97787 27.4222 2.45188 27.7962 2.06616C28.1586 1.68044 28.6729 1.45836 29.2106 1.47005C29.7482 1.43498 30.2625 1.65707 30.6015 2.07785L31.0457 1.61031C30.8282 1.36377 30.556 1.17161 30.2508 1.04926C29.9266 0.906078 29.5766 0.830511 29.2222 0.827182C28.5209 0.827182 27.843 1.09602 27.3521 1.59862C26.98 1.97543 26.7264 2.45293 26.6225 2.97221C26.5186 3.49149 26.5691 4.02982 26.7677 4.52075C26.963 5.01364 27.3008 5.43707 27.7381 5.7369C28.1753 6.03673 28.6921 6.19932 29.2222 6.2039C29.57 6.21707 29.9166 6.15615 30.239 6.02516C30.5615 5.89418 30.8524 5.69612 31.0924 5.44414L31.0807 5.43245ZM33.3015 1.57525H35.5925V0.967444H32.6236V6.08701H35.5925V5.44414H33.3015V3.81944H35.3938V3.21164H33.3015V1.57525ZM38.3744 6.08701H37.7198V1.58694H36.2938V0.944067H39.8237V1.57525H38.3744V6.08701ZM42.9679 0.944067H42.3251V6.08701H42.9679V0.944067ZM45.8667 6.08701H45.2238V1.58694H43.7978V0.944067H47.281V1.57525H45.8784V6.08701H45.8667ZM50.659 4.98829C51.4187 5.75973 52.6577 5.75973 53.4175 4.98829C54.1772 4.15841 54.1772 2.88436 53.4175 2.04279C53.237 1.86043 53.0222 1.71567 52.7855 1.61687C52.5487 1.51807 52.2947 1.4672 52.0382 1.4672C51.7817 1.4672 51.5277 1.51807 51.2909 1.61687C51.0542 1.71567 50.8394 1.86043 50.659 2.04279C49.9109 2.88436 49.9109 4.14672 50.659 4.98829ZM56.3746 0.955756H55.5798V6.08701H56.2344V1.90252L58.8175 6.08701H59.4955V0.944067H58.8409V4.94154L56.3746 0.955756ZM0.620467 24.2042C0.246435 24.0873 0.000976562 23.6899 0.000976562 23.0704V2.49864C0.000976562 1.90252 0.21137 1.50512 0.538648 1.36485L9.93621 12.8313L0.620467 24.2042ZM1.91789 23.7717L13.2324 16.8755L10.4739 13.5092L1.91789 23.7717ZM13.3142 8.7403L2.15166 1.93759L10.4973 12.165L13.3025 8.72861L13.3142 8.7403ZM14.0623 9.20784L18.4338 11.8611C19.2636 12.3754 19.2753 13.1819 18.4338 13.6962L13.9571 16.4313L11.0349 12.843L14.0739 9.19615L14.0623 9.20784Z" fill="white"/>
</g>
<defs>
<clipPath id="clip0_3775_17365">
<rect width="98.1835" height="23.377" fill="white" transform="translate(0.000488281 0.826904)"/>
</clipPath>
</defs>
</svg>
