<svg width="303" height="83" viewBox="0 0 303 83" fill="none" xmlns="http://www.w3.org/2000/svg">
<path d="M75.4385 59.3794H93.9359V55.6169H80.5822V36.4778H75.4385V59.3794Z" fill="white"/>
<path d="M124.853 59.9032C131.381 59.9032 135.239 56.0425 135.239 49.5648V36.5437H129.997V49.5648C129.997 53.0651 128.084 55.1591 124.853 55.1591C121.589 55.1591 119.676 53.0651 119.676 49.5648V36.5437H114.434V49.5648C114.434 56.0425 118.292 59.9032 124.853 59.9032Z" fill="white"/>
<path d="M157.39 46.325V59.3793H162.633V46.325C162.633 42.8246 164.545 40.7632 167.809 40.7632C171.041 40.7632 172.953 42.8239 172.953 46.325V59.3793H178.196V46.325C178.196 39.8473 174.338 36.019 167.809 36.019C161.248 36.019 157.39 39.8466 157.39 46.325Z" fill="white"/>
<path d="M200.343 36.4778V59.3794H218.94V55.6169H205.586V49.7929H217.95V46.0311H205.586V40.2403H218.742V36.4778H200.343Z" fill="white"/>
<path d="M251.274 59.9035C257.737 59.9035 261.595 57.0243 261.595 52.1114C261.595 43.4139 246.064 48.5129 246.064 42.9884C246.064 41.1566 247.68 39.7171 251.076 39.7171C254.044 39.7171 255.923 41.3856 256.121 44.1333H261.364C261.166 38.9969 257.374 35.9539 251.175 35.9539C244.844 35.9539 241.086 38.604 241.086 42.8245C241.086 53.0266 256.352 47.2414 256.352 52.6669C256.352 54.8314 254.44 56.1403 251.274 56.1403C248.373 56.1403 246.559 54.635 246.329 52.1107H241.086C241.284 57.0237 245.109 59.9028 251.274 59.9028V59.9035Z" fill="white"/>
<path d="M303 36.4778H282.425V40.4368H290.107V59.3794H295.35V40.4368H303V36.4778Z" fill="white"/>
<path fill-rule="evenodd" clip-rule="evenodd" d="M31.0535 61.7702C31.0535 60.4468 32.1341 59.3739 33.4678 59.3739C34.0095 59.3739 34.5087 59.551 34.9116 59.8492C34.9849 59.9031 35.0546 59.9612 35.1208 60.0228L49.7189 72.175C50.1421 72.5375 50.6936 72.7582 51.2966 72.7582H56.8308C58.1387 72.7582 59.2033 71.7268 59.2444 70.4394V70.3619V70.2844V67.3022V46.8779V35.351V35.0355C59.2019 34.388 58.9 33.8104 58.4405 33.4043L58.3325 33.3144L49.3578 25.842L31.2389 10.7559L31.1023 10.6425C30.6931 10.3263 30.1785 10.1382 29.6201 10.1382C29.061 10.1382 28.5458 10.327 28.1365 10.6432L28.0048 10.7532L21.9303 15.8107L0.893079 33.3262L0.827545 33.3808C0.331854 33.8097 0.0139435 34.4371 0 35.1379V35.1863V35.2348V42.8954V46.8744V62.9476V70.3128V70.3612V70.4096C0.0257954 71.6949 1.07086 72.7305 2.36481 72.7561H2.41431H2.46311H9.88661H21.1662H28.5897H28.6385H28.688C29.9826 72.7305 31.027 71.6943 31.0528 70.4096V70.3612V70.3128L31.0535 61.7681V61.7702ZM45.3595 55.7421L30.6108 43.4626L30.5975 43.4515C30.1911 43.1147 29.6696 42.9078 29.1007 42.8967H29.0519H29.0024H23.63H23.5812H23.5317C22.237 42.9223 21.1927 43.9593 21.1669 45.2432V45.2916V45.3401V60.5043C21.1676 60.5202 21.1676 60.5368 21.1676 60.5534C21.1676 60.5693 21.1676 60.5852 21.1669 60.6018C21.1411 61.8864 20.0967 62.9227 18.8021 62.9483C18.7853 62.9483 18.7693 62.9483 18.7526 62.9483C18.7358 62.9483 18.7191 62.9483 18.7038 62.9483H12.3504C12.3351 62.9483 12.3184 62.9483 12.3016 62.9483C12.2849 62.9483 12.2689 62.9483 12.2528 62.9483C10.9582 62.9227 9.9138 61.8857 9.88801 60.6018C9.88801 60.5852 9.88731 60.5693 9.88731 60.5534C9.88731 60.5368 9.88801 60.5202 9.88801 60.5043L9.8901 39.7492C9.8901 39.081 10.1662 38.4771 10.611 38.0419C10.703 37.9527 10.8013 37.8697 10.9066 37.7957L17.3561 32.4255L28.0598 23.5135C28.0717 23.5038 28.0835 23.4941 28.0954 23.4844C28.5116 23.1468 29.0435 22.9435 29.6236 22.9435C30.1806 22.9435 30.6937 23.1309 31.1016 23.445C31.1511 23.4837 31.1985 23.5232 31.2445 23.5647L48.3971 37.8448C48.4431 37.8794 48.487 37.9147 48.5302 37.952C49.0378 38.3913 49.3585 39.0381 49.3599 39.763V53.9332C49.3599 55.2565 48.2785 56.3288 46.9449 56.3288C46.3725 56.3288 45.8461 56.1309 45.432 55.8009C45.4076 55.7816 45.3839 55.7615 45.3602 55.7408L45.3595 55.7421Z" fill="#276EE4"/>
</svg>
