<?xml version="1.0" encoding="UTF-8"?>
<!DOCTYPE svg PUBLIC "-//W3C//DTD SVG 1.1//EN" "http://www.w3.org/Graphics/SVG/1.1/DTD/svg11.dtd">
<!-- Creator: CorelDRAW 2021 (64-Bit Evaluation Version) -->
<svg xmlns="http://www.w3.org/2000/svg" xml:space="preserve" width="4.42859in" height="4.71753in" version="1.1" style="shape-rendering:geometricPrecision; text-rendering:geometricPrecision; image-rendering:optimizeQuality; fill-rule:evenodd; clip-rule:evenodd"
viewBox="0 0 24727.5 26340.8"
 xmlns:xlink="http://www.w3.org/1999/xlink"
 xmlns:xodm="http://www.corel.com/coreldraw/odm/2003">
 <defs>
  <style type="text/css">
   <![CDATA[
    .fil0 {fill:#276EE4}
   ]]>
  </style>
 </defs>
 <g id="Layer_x0020_1">
  <metadata id="CorelCorpID_0Corel-Layer"/>
  <path class="fil0" d="M12960.9 21718.5c0,-556.7 451.1,-1007.9 1007.8,-1007.9 226,0 434.5,74.5 602.7,200 30.4,22.8 59.6,47.2 87.2,73l6092.9 5111.9c176.5,152.5 406.8,245.2 658.6,245.3l2310 -0.1c545.9,0 990.4,-433.8 1007.4,-975.3l0 -32.5 0 -32.6 0 -1254.4 0 -8591.5 0 -4848.9 0 -132.8c-17.8,-272.4 -143.8,-515.3 -335.5,-686.2l-45 -37.8 -3745.9 -3143.2 -7562.4 -6345.8 -57 -47.6c-170.7,-132.9 -385.6,-212.2 -618.7,-212.2 -233.3,0 -448.4,79.3 -619.2,212.6l-55.1 46.2 -2535.5 2127.4 -8780.6 7367.7 -27.3 23.1c-207,180.5 -339.5,444.2 -345.3,739.2l0 20.4 0 20.5 0 3222.5 0 1673.7 0 6761.2 0 3098.2 0 20.5 0 20.4c10.9,540.5 446.9,976.4 987.2,987.2l20.6 0 20.3 0 3098.3 0 4707.8 0 3098.3 0 20.5 0 20.6 0c540.3,-10.7 976.3,-446.6 986.9,-987.2l0 -20.4 0 -20.5 0.4 -3594.3zm5971 -2535.6l-6155.8 -5165.3 -5.5 -4.6c-169.8,-141.7 -387.2,-228.6 -624.7,-233.4l-20.5 0 -20.6 0 -2242.4 0 -20.4 0 -20.6 0c-540.3,10.7 -976.3,446.9 -987.2,987.2l0 20.5 0 20.4 0 6378.7c0.2,6.6 0.2,13.6 0.2,20.6 0,6.7 0,13.5 -0.2,20.4 -10.6,540.3 -446.6,976.3 -986.9,987.2 -7,0 -13.7,0.1 -20.6,0.1 -6.9,0 -13.8,-0.1 -20.5,-0.1l-2651.8 0c-6.5,0 -13.5,0.1 -20.4,0.1 -7,0 -13.7,-0.1 -20.5,-0.1 -540.3,-10.9 -976.4,-446.9 -987.2,-987.2 0,-6.9 -0.2,-13.6 -0.2,-20.4 0,-7 0.2,-14 0.2,-20.6l0.9 -8730.6c0,-281.1 115.3,-535.3 300.8,-718.1 38.3,-37.7 79.6,-72.5 123.5,-103.5l2691.8 -2259 4467.6 -3748.8c4.9,-4 9.8,-8.2 14.8,-12.2 173.6,-142.1 395.7,-227.5 637.8,-227.5 232.5,0 446.5,78.8 617,210.9 20.6,16.2 40.4,32.8 59.6,50.4l7159.1 6006.8c19.1,14.5 37.5,29.5 55.6,45.2 211.8,184.7 345.7,457 346.3,761.9l0 5960.7c0,556.6 -451.2,1007.7 -1007.9,1007.7 -239,0 -458.7,-83.1 -631.5,-222.1 -10.1,-8.2 -20.2,-16.6 -29.9,-25.3z"/>
 </g>
</svg>
