<svg width="168" height="173" viewBox="0 0 168 173" fill="none" xmlns="http://www.w3.org/2000/svg">
<path fill-rule="evenodd" clip-rule="evenodd" d="M-52.5612 211.475C-48.1024 206.061 -48.8772 198.055 -54.2915 193.596C-56.4917 191.784 -59.1208 190.835 -61.7619 190.714C-62.2429 190.687 -62.7157 190.695 -63.1963 190.722L-163.435 191.641C-166.382 191.708 -169.358 190.764 -171.815 188.75L-194.287 170.234C-199.596 165.862 -200.446 158.086 -196.272 152.675L-196.012 152.36L-195.753 152.045L-185.702 139.84L-116.86 56.2465L-78.0064 9.06703L-76.9425 7.77519C-74.5854 5.26587 -71.4155 3.91026 -68.1751 3.78513L-67.4365 3.77617L-5.8081 3.21056L118.622 2.06732L119.559 2.05389C122.288 2.13299 125.008 3.07798 127.277 4.94619C129.551 6.81887 131.005 9.3119 131.601 11.9801L131.765 12.8728L139.387 53.8828L165.787 195.931L165.863 196.373C166.435 199.788 165.607 203.416 163.304 206.33L163.139 206.53L162.975 206.729L137.152 238.086L123.741 254.371L69.5644 320.157L44.7402 350.3L44.576 350.5L44.4116 350.699C39.9773 355.869 32.2398 356.619 26.8963 352.394L26.6967 352.23L26.4973 352.066L-3.6464 327.241L-49.4556 289.516L-79.5993 264.692L-79.7986 264.528L-79.9983 264.363C-85.1686 259.929 -85.9174 252.192 -81.6933 246.848L-81.5289 246.649L-81.3647 246.449L-52.5616 211.474L-52.5612 211.475ZM-90.3455 138.964L10.9361 138.031L11.0276 138.027C13.815 138.013 16.6275 138.911 18.977 140.766L19.1767 140.931L19.3764 141.095L41.1964 159.065L41.3958 159.229L41.5955 159.393C46.7658 163.827 47.5092 171.561 43.2854 176.904L43.1209 177.104L42.9565 177.303L-8.15378 239.366C-8.20553 239.429 -8.262 239.497 -8.31822 239.566C-8.36997 239.628 -8.42644 239.697 -8.48239 239.765C-12.7065 245.108 -11.9577 252.846 -6.78734 257.28C-6.71907 257.337 -6.65081 257.393 -6.58798 257.445C-6.51972 257.501 -6.45146 257.557 -6.3883 257.609L19.4126 278.857C19.4808 278.913 19.544 278.965 19.6122 279.021C19.6805 279.077 19.7437 279.129 19.8119 279.186C25.155 283.41 32.8928 282.661 37.3271 277.49C37.3833 277.422 37.4395 277.354 37.4913 277.291C37.5475 277.223 37.6037 277.155 37.6557 277.091L107.603 192.134C109.856 189.398 110.775 186.004 110.43 182.741C110.36 182.066 110.242 181.396 110.058 180.742L101.972 137.192L88.5404 64.9235C88.5224 64.8381 88.5096 64.7574 88.4929 64.6815C87.9394 61.9079 86.4642 59.3006 84.1063 57.3589C81.8483 55.4993 79.132 54.5492 76.4171 54.4638C76.0877 54.4569 75.7595 54.4596 75.4373 54.4764L-42.3535 55.5622C-42.6593 55.548 -42.9591 55.548 -43.2578 55.5578C-46.8005 55.6541 -50.2826 57.2284 -52.7315 60.191L-100.494 118.189C-104.953 123.603 -104.178 131.609 -98.7642 136.068C-96.4376 137.984 -93.6346 138.935 -90.8425 138.97C-90.6735 138.968 -90.5085 138.971 -90.345 138.965L-90.3455 138.964Z" stroke="#DCDDFD" stroke-width="2.6669" stroke-miterlimit="10"/>
</svg>
