<svg width="215" height="207" viewBox="0 0 215 207" fill="none" xmlns="http://www.w3.org/2000/svg">
<g clip-path="url(#clip0_3757_43353)">
<path fill-rule="evenodd" clip-rule="evenodd" d="M153.439 55.475C157.898 50.0608 157.123 42.0548 151.709 37.596C149.508 35.784 146.879 34.8351 144.238 34.7135C143.757 34.6873 143.284 34.6946 142.804 34.7217L42.5647 35.6407C39.6184 35.7083 36.6417 34.7637 34.1849 32.7496L11.7126 14.2344C6.40362 9.86231 5.55419 2.08609 9.72827 -3.32499L9.9878 -3.64014L10.2473 -3.95528L20.2982 -16.1599L89.1399 -99.7535L127.994 -146.933L129.057 -148.225C131.415 -150.734 134.584 -152.09 137.825 -152.215L138.563 -152.224L200.192 -152.789L324.622 -153.933L325.559 -153.946C328.288 -153.867 331.008 -152.922 333.277 -151.054C335.551 -149.181 337.005 -146.688 337.601 -144.02L337.765 -143.127L345.387 -102.117L371.787 39.9311L371.863 40.3731C372.435 43.7879 371.607 47.4156 369.304 50.3304L369.139 50.5301L368.975 50.7295L343.152 82.0862L329.741 98.3711L275.564 164.157L250.74 194.3L250.576 194.5L250.412 194.699C245.977 199.869 238.24 200.619 232.896 196.394L232.697 196.23L232.497 196.066L202.354 171.241L156.544 133.516L126.401 108.692L126.201 108.528L126.002 108.363C120.831 103.929 120.083 96.1916 124.307 90.8484L124.471 90.6488L124.635 90.4494L153.438 55.4742L153.439 55.475ZM115.655 -17.0364L216.936 -17.9693L217.028 -17.9732C219.815 -17.9869 222.627 -17.0893 224.977 -15.2336L225.177 -15.0692L225.376 -14.9047L247.196 3.06474L247.396 3.22891L247.595 3.39335C252.766 7.82734 253.509 15.5607 249.285 20.904L249.121 21.1037L248.957 21.3034L197.846 83.3659C197.794 83.4288 197.738 83.4973 197.682 83.5656C197.63 83.6284 197.574 83.697 197.518 83.765C193.294 89.1081 194.042 96.8459 199.213 101.28C199.281 101.337 199.349 101.393 199.412 101.445C199.48 101.501 199.549 101.557 199.612 101.609L225.413 122.857C225.481 122.913 225.544 122.965 225.612 123.021C225.681 123.077 225.744 123.129 225.812 123.186C231.155 127.41 238.893 126.661 243.327 121.49C243.383 121.422 243.44 121.354 243.491 121.291C243.547 121.223 243.604 121.155 243.656 121.091L313.603 36.1341C315.856 33.3979 316.775 30.0036 316.43 26.7407C316.36 26.0662 316.242 25.3962 316.058 24.7421L307.972 -18.8084L294.54 -91.0765C294.522 -91.1619 294.51 -91.2426 294.493 -91.3185C293.939 -94.0921 292.464 -96.6994 290.106 -98.6411C287.848 -100.501 285.132 -101.451 282.417 -101.536C282.088 -101.543 281.759 -101.54 281.437 -101.524L163.646 -100.438C163.341 -100.452 163.041 -100.452 162.742 -100.442C159.2 -100.346 155.717 -98.7716 153.268 -95.809L105.506 -37.8112C101.047 -32.3969 101.822 -24.3909 107.236 -19.9321C109.562 -18.0161 112.365 -17.0647 115.158 -17.0302C115.326 -17.0319 115.491 -17.0288 115.655 -17.0349L115.655 -17.0364Z" stroke="#AFE7CF" stroke-width="2.6669" stroke-miterlimit="10"/>
</g>
<defs>
<clipPath id="clip0_3757_43353">
<rect width="314.344" height="334.685" fill="white" transform="matrix(-0.77193 -0.635707 -0.635707 0.77193 455.413 -52.1694)"/>
</clipPath>
</defs>
</svg>
