<svg width="210" height="201" viewBox="0 0 210 201" fill="none" xmlns="http://www.w3.org/2000/svg">
<path fill-rule="evenodd" clip-rule="evenodd" d="M148.439 55.475C152.898 50.0608 152.123 42.0548 146.709 37.596C144.508 35.784 141.879 34.8351 139.238 34.7135C138.757 34.6873 138.284 34.6946 137.804 34.7217L37.5647 35.6407C34.6184 35.7083 31.6417 34.7637 29.1849 32.7496L6.71263 14.2344C1.40362 9.86231 0.554194 2.08609 4.72827 -3.32499L4.9878 -3.64014L5.24733 -3.95528L15.2982 -16.1599L84.1399 -99.7535L122.994 -146.933L124.057 -148.225C126.415 -150.734 129.584 -152.09 132.825 -152.215L133.563 -152.224L195.192 -152.789L319.622 -153.933L320.559 -153.946C323.288 -153.867 326.008 -152.922 328.277 -151.054C330.551 -149.181 332.005 -146.688 332.601 -144.02L332.765 -143.127L340.387 -102.117L366.787 39.9311L366.863 40.3731C367.435 43.7879 366.607 47.4156 364.304 50.3304L364.139 50.5301L363.975 50.7295L338.152 82.0862L324.741 98.3711L270.564 164.157L245.74 194.3L245.576 194.5L245.412 194.699C240.977 199.869 233.24 200.619 227.896 196.394L227.697 196.23L227.497 196.066L197.354 171.241L151.544 133.516L121.401 108.692L121.201 108.528L121.002 108.363C115.831 103.929 115.083 96.1916 119.307 90.8484L119.471 90.6488L119.635 90.4494L148.438 55.4742L148.439 55.475ZM110.655 -17.0364L211.936 -17.9693L212.028 -17.9732C214.815 -17.9869 217.627 -17.0893 219.977 -15.2336L220.177 -15.0692L220.376 -14.9047L242.196 3.06474L242.396 3.22891L242.595 3.39335C247.766 7.82734 248.509 15.5607 244.285 20.904L244.121 21.1037L243.957 21.3034L192.846 83.3659C192.794 83.4288 192.738 83.4973 192.682 83.5656C192.63 83.6284 192.574 83.697 192.518 83.765C188.294 89.1081 189.042 96.8459 194.213 101.28C194.281 101.337 194.349 101.393 194.412 101.445C194.48 101.501 194.549 101.557 194.612 101.609L220.413 122.857C220.481 122.913 220.544 122.965 220.612 123.021C220.681 123.077 220.744 123.129 220.812 123.186C226.155 127.41 233.893 126.661 238.327 121.49C238.383 121.422 238.44 121.354 238.491 121.291C238.547 121.223 238.604 121.155 238.656 121.091L308.603 36.1341C310.856 33.3979 311.775 30.0036 311.43 26.7407C311.36 26.0662 311.242 25.3962 311.058 24.7421L302.972 -18.8084L289.54 -91.0765C289.522 -91.1619 289.51 -91.2426 289.493 -91.3185C288.939 -94.0921 287.464 -96.6994 285.106 -98.6411C282.848 -100.501 280.132 -101.451 277.417 -101.536C277.088 -101.543 276.759 -101.54 276.437 -101.524L158.646 -100.438C158.341 -100.452 158.041 -100.452 157.742 -100.442C154.2 -100.346 150.717 -98.7716 148.268 -95.809L100.506 -37.8112C96.0468 -32.3969 96.8215 -24.3909 102.236 -19.9321C104.562 -18.0161 107.365 -17.0647 110.158 -17.0302C110.326 -17.0319 110.491 -17.0288 110.655 -17.0349L110.655 -17.0364Z" stroke="#DCDDFD" stroke-width="2.6669" stroke-miterlimit="10"/>
</svg>
