<svg width="25" height="24" viewBox="0 0 25 24" fill="none" xmlns="http://www.w3.org/2000/svg">
<path d="M8.68283 12.6736H8.22387C6.74014 12.6736 5.99827 12.6736 5.68205 12.1844C5.36583 11.6953 5.66713 11.0138 6.26973 9.65083L8.08137 5.55323C8.62926 4.314 8.90321 3.69438 9.43466 3.34719C9.96611 3 10.6406 3 11.9897 3H14.0791C15.7179 3 16.5373 3 16.8463 3.53535C17.1554 4.0707 16.7489 4.78588 15.9358 6.21623L14.8639 8.10188C14.4597 8.81295 14.2576 9.16849 14.2604 9.45952C14.2641 9.83775 14.4652 10.1862 14.7901 10.377C15.0401 10.5239 15.4474 10.5239 16.2621 10.5239C17.292 10.5239 17.807 10.5239 18.0752 10.7022C18.4236 10.9338 18.606 11.3482 18.5421 11.7632C18.4929 12.0826 18.1465 12.4656 17.4537 13.2317L11.9186 19.3523C10.8314 20.5545 10.2878 21.1556 9.92276 20.9654C9.55772 20.7751 9.73302 19.9822 10.0836 18.3962L10.7704 15.2896C11.0373 14.082 11.1708 13.4782 10.8498 13.0759C10.5288 12.6736 9.91346 12.6736 8.68283 12.6736Z" stroke="url(#paint0_linear_3775_17353)" stroke-width="1.5" stroke-linejoin="round"/>
<defs>
<linearGradient id="paint0_linear_3775_17353" x1="6.88719" y1="7.54946" x2="18.3158" y2="8.99855" gradientUnits="userSpaceOnUse">
<stop offset="0.322115" stop-color="#D0E1FF"/>
<stop offset="0.942308" stop-color="#BFCAFF"/>
</linearGradient>
</defs>
</svg>
